<?xml version="1.0" standalone="no"?>
<!DOCTYPE svg PUBLIC "-//W3C//DTD SVG 20010904//EN"
 "http://www.w3.org/TR/2001/REC-SVG-20010904/DTD/svg10.dtd">
<svg version="1.0" xmlns="http://www.w3.org/2000/svg"
 width="600.000000pt" height="340.000000pt" viewBox="0 0 600.000000 340.000000"
 preserveAspectRatio="xMidYMid meet">

<g transform="translate(0.000000,340.000000) scale(0.100000,-0.100000)"
fill="#000000" stroke="none">
<path d="M1716 2262 c-3 -5 -30 -78 -61 -163 -31 -85 -103 -280 -160 -434 -57
-154 -121 -329 -143 -390 -22 -60 -44 -118 -47 -128 -7 -16 -1 -18 71 -15 l79
3 82 220 c74 201 134 363 230 628 19 53 39 97 43 97 4 0 20 -33 34 -72 15 -40
75 -200 133 -356 58 -156 103 -285 101 -287 -2 -2 -79 45 -171 106 -92 60
-171 107 -176 105 -10 -7 -55 -125 -50 -130 2 -2 110 -74 241 -160 l236 -156
76 0 c78 0 83 3 66 42 -5 13 -39 106 -76 208 -36 102 -106 298 -156 435 -49
138 -106 296 -126 352 l-37 103 -92 0 c-50 0 -94 -4 -97 -8z"/>
<path d="M2480 1700 l0 -570 75 0 75 0 0 506 0 506 199 -4 c219 -3 226 -5 275
-72 29 -38 29 -114 0 -152 -48 -64 -62 -69 -230 -72 l-154 -3 0 -69 0 -68 153
-4 c140 -3 156 -5 197 -28 136 -76 156 -225 46 -336 -44 -43 -60 -52 -110 -62
-33 -7 -110 -12 -173 -12 l-113 0 0 -65 0 -65 150 0 c126 0 160 3 215 22 144
47 235 178 235 340 0 101 -55 203 -139 260 l-23 16 27 29 c104 108 100 280 -9
388 -80 79 -109 85 -429 85 l-267 0 0 -570z"/>
<path d="M3520 1700 l0 -570 75 0 75 0 -2 568 -3 567 -72 3 -73 3 0 -571z"/>
<path d="M4200 2055 l0 -215 -220 0 -221 0 3 -72 3 -73 218 0 217 0 0 -282 0
-283 75 0 75 0 0 570 0 570 -75 0 -75 0 0 -215z"/>
<path d="M4550 1700 l0 -570 75 0 75 0 0 570 0 570 -75 0 -75 0 0 -570z"/>
</g>
</svg>
